<?xml version="1.0" encoding="UTF-8"?>
<svg version="1.1" xmlns="http://www.w3.org/2000/svg" width="512" height="512" viewBox="0 0 512 512">
  <path d="M0 0 C0.97055328 0.00215515 1.94110657 0.0043103 2.94107056 0.00653076 C17.26361716 0.05754633 31.30505979 0.38406747 45.375 3.3125 C46.3846582 3.52181152 47.39431641 3.73112305 48.43457031 3.94677734 C113.68966736 17.88772868 170.73958427 55.63911007 207.53515625 111.59765625 C209.53543402 114.80684941 211.46439836 118.0491924 213.375 121.3125 C214.08835732 122.48709114 214.80190487 123.66156677 215.515625 124.8359375 C237.28857561 161.33186945 246.85613716 203.79218755 246.6875 245.9375 C246.68534485 246.90805328 246.6831897 247.87860657 246.68096924 248.87857056 C246.6299334 263.20680898 246.28258438 277.23435782 243.375 291.3125 C243.17632324 292.29557129 242.97764648 293.27864258 242.77294922 294.29150391 C239.56197522 309.73063656 235.01803374 324.59539933 229.375 339.3125 C229.10107422 340.03163574 228.82714844 340.75077148 228.54492188 341.49169922 C205.72245882 400.19233259 156.17639909 446.59888989 99.75048828 472.51806641 C83.50446204 479.64496585 66.38103401 485.084419 49 488.625 C48.27748047 488.77227539 47.55496094 488.91955078 46.81054688 489.07128906 C31.47941368 491.96536239 16.31727809 492.68728976 0.75 492.625 C-0.22055328 492.62284485 -1.19110657 492.6206897 -2.19107056 492.61846924 C-16.51930898 492.5674334 -30.54685782 492.22008438 -44.625 489.3125 C-46.09960693 489.01448486 -46.09960693 489.01448486 -47.60400391 488.71044922 C-63.04313656 485.49947522 -77.90789933 480.95553374 -92.625 475.3125 C-93.34413574 475.03857422 -94.06327148 474.76464844 -94.80419922 474.48242188 C-153.36369713 451.71483146 -200.19173128 402.09108146 -225.84667969 345.62353516 C-228.31322524 339.92843063 -230.53439891 334.15518617 -232.625 328.3125 C-232.90037598 327.54550781 -233.17575195 326.77851563 -233.45947266 325.98828125 C-236.7860053 316.54004627 -239.29124 306.98264764 -241.375 297.1875 C-241.57375732 296.25905273 -241.77251465 295.33060547 -241.97729492 294.37402344 C-245.18740382 278.48446598 -246.00219991 262.85711349 -245.9375 246.6875 C-245.93534485 245.71694672 -245.9331897 244.74639343 -245.93096924 243.74642944 C-245.87995367 229.42388284 -245.55343253 215.38244021 -242.625 201.3125 C-242.41568848 200.3028418 -242.20637695 199.29318359 -241.99072266 198.25292969 C-233.11524425 156.70840446 -215.50524943 118.60840588 -187.625 86.3125 C-186.95597656 85.53261719 -186.28695312 84.75273438 -185.59765625 83.94921875 C-175.54775198 72.51441147 -164.76497902 61.52499089 -152.625 52.3125 C-152.05813477 51.8798584 -151.49126953 51.4472168 -150.90722656 51.00146484 C-142.44750442 44.57234586 -133.80245061 38.68571464 -124.625 33.3125 C-123.45040886 32.59914268 -122.27593323 31.88559513 -121.1015625 31.171875 C-99.42668236 18.24489569 -74.92720371 9.73395827 -50.3125 4.5 C-49.39533203 4.30494873 -48.47816406 4.10989746 -47.53320312 3.90893555 C-31.6959271 0.74622371 -16.11036364 -0.06446283 0 0 Z " fill="#3DC285" transform="translate(255.625,9.6875)"/>
  <path d="M0 0 C7.2981999 3.00978913 14.09671968 7.29975346 20.875 11.3125 C29.84077227 16.58173421 38.83950901 21.78894187 47.875 26.9375 C50.24498413 28.28872522 52.61476306 29.64030968 54.984375 30.9921875 C55.56958923 31.32605469 56.15480347 31.65992188 56.75775146 32.00390625 C66.11650252 37.34639708 75.44297955 42.74503076 84.7734375 48.13671875 C88.03524007 50.0203505 91.29861844 51.90122321 94.5625 53.78125 C105.01712951 59.80439739 115.46048442 65.84522445 125.875 71.9375 C134.55262662 77.01275369 143.26621513 82.02230332 152 87 C163.73422025 93.68909956 175.42336441 100.45158007 187.07128906 107.29003906 C190.11996873 109.0700451 193.18005217 110.82919361 196.2421875 112.5859375 C198.24487145 113.74465378 200.2474785 114.90350299 202.25 116.0625 C203.17345215 116.58674561 204.0969043 117.11099121 205.04833984 117.65112305 C213.36253732 122.49102271 213.36253732 122.49102271 216 127 C216.56640625 129.46484375 216.56640625 129.46484375 216.5625 131.9375 C216.59537109 133.15759766 216.59537109 133.15759766 216.62890625 134.40234375 C215.48993999 139.10676962 212.71696624 141.8433697 208.82006836 144.46850586 C206.1412286 146.04520339 203.42731742 147.53183941 200.6875 149 C198.60064623 150.14807566 196.51473681 151.29786922 194.4296875 152.44921875 C193.36073242 153.03622559 192.29177734 153.62323242 191.19042969 154.22802734 C186.18360935 157.00882793 181.24902262 159.90929459 176.3125 162.8125 C167.57470603 167.93374047 158.79983996 172.98647525 150 178 C140.27865901 183.53968899 130.59104908 189.13375063 120.93310547 194.78344727 C110.40915375 200.93766742 99.84619863 207.02369996 89.28222656 213.10888672 C84.9358286 215.6131413 80.59089727 218.11993352 76.24609375 220.62695312 C72.99496521 222.50290515 69.74357626 224.37840529 66.4921875 226.25390625 C62.18398349 228.73930902 57.87677211 231.22641977 53.5703125 233.71484375 C42.59476154 240.05546043 31.61215272 246.38376477 20.61273193 252.68289185 C19.3850813 253.3861793 18.15773807 254.09000369 16.9307251 254.79440308 C15.22037504 255.77602169 13.50864928 256.7552421 11.796875 257.734375 C10.33266113 258.57307129 10.33266113 258.57307129 8.83886719 259.42871094 C-0.81659167 264.77292604 -0.81659167 264.77292604 -7 264 C-11.9756307 261.51218465 -14.00179801 259.13523709 -16 254 C-16.42448658 250.66960627 -16.40931407 247.37153237 -16.38768005 244.0177002 C-16.39306559 243.01633671 -16.39845113 242.01497323 -16.40399987 240.9832654 C-16.41830015 237.62999441 -16.41117047 234.27711701 -16.40405273 230.92382812 C-16.40975515 228.51891258 -16.41671891 226.11399974 -16.42485046 223.70909119 C-16.44094475 217.85643729 -16.44287994 212.00388255 -16.43763756 206.1512183 C-16.43359385 201.39405979 -16.43504179 196.63693299 -16.44038582 191.879776 C-16.44113424 191.20235777 -16.44188266 190.52493955 -16.44265376 189.8269935 C-16.44418526 188.45077208 -16.44572361 187.07455067 -16.44726873 185.69832927 C-16.46099112 172.79766762 -16.45555766 159.89706664 -16.44408352 146.99640638 C-16.43414867 135.19613687 -16.44709655 123.3960241 -16.47101771 111.59577876 C-16.49540326 99.47503051 -16.5050181 87.35435527 -16.49836498 75.23358297 C-16.49487189 68.43033889 -16.49711084 61.6272154 -16.51461601 54.82398987 C-16.53086863 48.4283293 -16.52616487 42.03289462 -16.50731087 35.63723946 C-16.50361632 33.28864666 -16.50675852 30.94003178 -16.51719666 28.59145927 C-16.53034829 25.38805773 -16.51890996 22.18565787 -16.50120544 18.9822998 C-16.51081045 18.05058724 -16.52041546 17.11887467 -16.53031152 16.15892839 C-16.45547546 9.58844915 -14.80058877 6.00063083 -10.25 1.125 C-6.79031507 -0.60484246 -3.72397667 -0.68712384 0 0 Z " fill="#E8EDF1" transform="translate(188,124)"/>
</svg>
